<svg xmlns="http://www.w3.org/2000/svg" xmlns:xlink="http://www.w3.org/1999/xlink" width="54" zoomAndPan="magnify" viewBox="0 0 40.5 32.999998" height="44" preserveAspectRatio="xMidYMid meet" version="1.0"><defs><clipPath id="a2c6ddee45"><path d="M 3.105469 9 L 17 9 L 17 24 L 3.105469 24 Z M 3.105469 9 " clip-rule="nonzero"/></clipPath><clipPath id="d677efcf38"><path d="M 23 9 L 37.605469 9 L 37.605469 25 L 23 25 Z M 23 9 " clip-rule="nonzero"/></clipPath><clipPath id="174c8dc102"><path d="M 3.105469 9 L 17 9 L 17 25 L 3.105469 25 Z M 3.105469 9 " clip-rule="nonzero"/></clipPath><clipPath id="4fe94bfb13"><path d="M 32 3.648438 L 34 3.648438 L 34 5 L 32 5 Z M 32 3.648438 " clip-rule="nonzero"/></clipPath><clipPath id="6faca7fcf3"><path d="M 7 29 L 9 29 L 9 29.898438 L 7 29.898438 Z M 7 29 " clip-rule="nonzero"/></clipPath></defs><path fill="#0d897b" d="M 36.5625 16.15625 L 30.390625 9.984375 C 30.222656 9.816406 29.996094 9.722656 29.757812 9.722656 L 24.707031 9.722656 C 24.347656 9.722656 24.023438 9.941406 23.882812 10.273438 C 23.746094 10.609375 23.824219 10.992188 24.078125 11.246094 L 29.621094 16.789062 L 24.078125 22.328125 C 23.824219 22.585938 23.746094 22.96875 23.882812 23.300781 C 24.023438 23.632812 24.347656 23.851562 24.707031 23.851562 L 29.757812 23.851562 C 29.996094 23.851562 30.222656 23.757812 30.390625 23.589844 L 36.5625 17.417969 C 36.730469 17.25 36.824219 17.023438 36.824219 16.789062 C 36.824219 16.550781 36.730469 16.324219 36.5625 16.15625 Z M 36.5625 16.15625 " fill-opacity="1" fill-rule="nonzero"/><path fill="#14b8a6" d="M 31.925781 17.417969 C 32.09375 17.25 32.1875 17.023438 32.1875 16.789062 C 32.1875 16.550781 32.09375 16.324219 31.925781 16.15625 L 25.753906 9.984375 C 25.585938 9.816406 25.359375 9.722656 25.121094 9.722656 L 24.707031 9.722656 C 24.347656 9.722656 24.023438 9.941406 23.882812 10.273438 C 23.746094 10.609375 23.824219 10.992188 24.078125 11.246094 L 29.621094 16.789062 L 24.078125 22.328125 C 23.824219 22.585938 23.746094 22.96875 23.882812 23.300781 C 24.023438 23.632812 24.347656 23.851562 24.707031 23.851562 L 25.121094 23.851562 C 25.359375 23.851562 25.585938 23.757812 25.753906 23.589844 Z M 31.925781 17.417969 " fill-opacity="1" fill-rule="nonzero"/><g clip-path="url(#a2c6ddee45)"><path fill="#14b8a6" d="M 16.519531 10.273438 C 16.382812 9.941406 16.054688 9.722656 15.695312 9.722656 L 10.644531 9.722656 C 10.410156 9.722656 10.183594 9.816406 10.015625 9.984375 L 3.839844 16.15625 C 3.671875 16.324219 3.578125 16.550781 3.578125 16.789062 C 3.578125 17.023438 3.671875 17.25 3.839844 17.417969 L 10.015625 23.589844 C 10.183594 23.757812 10.410156 23.851562 10.644531 23.851562 L 15.695312 23.851562 C 16.054688 23.851562 16.382812 23.632812 16.519531 23.300781 C 16.65625 22.96875 16.582031 22.585938 16.328125 22.328125 L 10.785156 16.789062 L 16.328125 11.246094 C 16.582031 10.992188 16.65625 10.609375 16.519531 10.273438 Z M 16.519531 10.273438 " fill-opacity="1" fill-rule="nonzero"/></g><path fill="#0d897b" d="M 16.519531 23.300781 C 16.65625 22.96875 16.582031 22.585938 16.328125 22.328125 L 10.785156 16.789062 L 16.328125 11.246094 C 16.582031 10.992188 16.65625 10.609375 16.519531 10.273438 C 16.382812 9.941406 16.054688 9.722656 15.695312 9.722656 L 15.28125 9.722656 C 15.046875 9.722656 14.820312 9.816406 14.652344 9.984375 L 8.476562 16.15625 C 8.3125 16.324219 8.214844 16.550781 8.214844 16.789062 C 8.214844 17.023438 8.3125 17.25 8.476562 17.417969 L 14.652344 23.589844 C 14.820312 23.757812 15.046875 23.851562 15.28125 23.851562 L 15.695312 23.851562 C 16.054688 23.851562 16.382812 23.632812 16.519531 23.300781 Z M 16.519531 23.300781 " fill-opacity="1" fill-rule="nonzero"/><g clip-path="url(#d677efcf38)"><path stroke-linecap="round" transform="matrix(0.264967, 0, 0, 0.264884, 2.483044, -1.091799)" fill="none" stroke-linejoin="round" d="M 129.885723 65.115494 L 106.57796 41.815195 C 105.944037 41.181073 105.088976 40.827145 104.189689 40.827145 L 85.142485 40.827145 C 83.786183 40.827145 82.54782 41.652978 82.031835 42.906475 C 81.515851 44.174719 81.795957 45.619928 82.754214 46.578484 L 103.673704 67.504512 L 82.754214 88.415793 C 81.795957 89.389096 81.501108 90.834305 82.031835 92.087802 C 82.54782 93.341299 83.786183 94.167132 85.142485 94.167132 L 104.189689 94.167132 C 105.088976 94.167132 105.944037 93.813204 106.57796 93.179082 L 129.885723 69.878783 C 130.504904 69.244661 130.858722 68.389333 130.858722 67.504512 C 130.858722 66.604944 130.504904 65.749616 129.885723 65.115494 Z M 129.885723 65.115494 " stroke="#33363a" stroke-width="3" stroke-opacity="1" stroke-miterlimit="10"/></g><path stroke-linecap="round" transform="matrix(0.264967, 0, 0, 0.264884, 2.483044, -1.091799)" fill="none" stroke-linejoin="round" d="M 108.671384 62.505271 L 87.751893 83.416551 " stroke="#33363a" stroke-width="3" stroke-opacity="1" stroke-miterlimit="10"/><g clip-path="url(#174c8dc102)"><path stroke-linecap="round" transform="matrix(0.264967, 0, 0, 0.264884, 2.483044, -1.091799)" fill="none" stroke-linejoin="round" d="M 52.97453 42.906475 C 52.458546 41.652978 51.220183 40.827145 49.86388 40.827145 L 30.801935 40.827145 C 29.91739 40.827145 29.062329 41.181073 28.428405 41.815195 L 5.120643 65.115494 C 4.486719 65.749616 4.132901 66.604944 4.132901 67.504512 C 4.132901 68.389333 4.486719 69.244661 5.120643 69.878783 L 28.428405 93.179082 C 29.062329 93.813204 29.91739 94.167132 30.801935 94.167132 L 49.86388 94.167132 C 51.220183 94.167132 52.458546 93.341299 52.97453 92.087802 C 53.490515 90.834305 53.210409 89.389096 52.252152 88.415793 L 31.332662 67.504512 L 52.252152 46.578484 C 53.210409 45.619928 53.490515 44.174719 52.97453 42.906475 Z M 52.97453 42.906475 " stroke="#33363a" stroke-width="3" stroke-opacity="1" stroke-miterlimit="10"/></g><path stroke-linecap="round" transform="matrix(0.264967, 0, 0, 0.264884, 2.483044, -1.091799)" fill="none" stroke-linejoin="round" d="M 26.334982 72.503753 L 47.23973 51.577726 " stroke="#33363a" stroke-width="3" stroke-opacity="1" stroke-miterlimit="10"/><path stroke-linecap="round" transform="matrix(0.264967, 0, 0, 0.264884, 2.483044, -1.091799)" fill="none" stroke-linejoin="round" d="M 57.043438 77.960152 L 77.962928 57.034125 " stroke="#33363a" stroke-width="3" stroke-opacity="1" stroke-miterlimit="10"/><path stroke-linecap="round" transform="matrix(0.264967, 0, 0, 0.264884, 2.483044, -1.091799)" fill="none" stroke-linejoin="round" d="M 101.403372 33.601103 L 103.791644 31.212085 " stroke="#33363a" stroke-width="3" stroke-opacity="1" stroke-miterlimit="10"/><path stroke-linecap="round" transform="matrix(0.264967, 0, 0, 0.264884, 2.483044, -1.091799)" fill="none" stroke-linejoin="round" d="M 108.184884 26.817471 L 108.435505 26.566772 " stroke="#33363a" stroke-width="3" stroke-opacity="1" stroke-miterlimit="10"/><path stroke-linecap="round" transform="matrix(0.264967, 0, 0, 0.264884, 2.483044, -1.091799)" fill="none" stroke-linejoin="round" d="M 111.678837 23.322427 L 111.929458 23.071727 " stroke="#33363a" stroke-width="3" stroke-opacity="1" stroke-miterlimit="10"/><g clip-path="url(#4fe94bfb13)"><path stroke-linecap="round" transform="matrix(0.264967, 0, 0, 0.264884, 2.483044, -1.091799)" fill="none" stroke-linejoin="round" d="M 115.17279 19.827382 L 115.423411 19.576682 " stroke="#33363a" stroke-width="3" stroke-opacity="1" stroke-miterlimit="10"/></g><path stroke-linecap="round" transform="matrix(0.264967, 0, 0, 0.264884, 2.483044, -1.091799)" fill="none" stroke-linejoin="round" d="M 33.602994 101.393174 L 31.214722 103.782192 " stroke="#33363a" stroke-width="3" stroke-opacity="1" stroke-miterlimit="10"/><path stroke-linecap="round" transform="matrix(0.264967, 0, 0, 0.264884, 2.483044, -1.091799)" fill="none" stroke-linejoin="round" d="M 26.806739 108.191553 L 26.556118 108.442252 " stroke="#33363a" stroke-width="3" stroke-opacity="1" stroke-miterlimit="10"/><path stroke-linecap="round" transform="matrix(0.264967, 0, 0, 0.264884, 2.483044, -1.091799)" fill="none" stroke-linejoin="round" d="M 23.312786 111.686597 L 23.076908 111.937297 " stroke="#33363a" stroke-width="3" stroke-opacity="1" stroke-miterlimit="10"/><g clip-path="url(#6faca7fcf3)"><path stroke-linecap="round" transform="matrix(0.264967, 0, 0, 0.264884, 2.483044, -1.091799)" fill="none" stroke-linejoin="round" d="M 19.833576 115.166895 L 19.582955 115.417595 " stroke="#33363a" stroke-width="3" stroke-opacity="1" stroke-miterlimit="10"/></g></svg>